ply
format ascii 1.0
element vertex 72
property float x
property float y
property float z
element face 36
property list uchar int vertex_index
end_header
0.02 0.02 0.04
0.02 0.04 0.04
1.02 0.04 0.04
1.02 0.02 0.04
0.02 0.02 0.02
1.02 0.02 0.02
1.02 0.04 0.02
0.02 0.04 0.02
1.02 0.02 0.02
1.02 0.02 0.04
1.02 0.04 0.04
1.02 0.04 0.02
0.02 0.02 0.02
0.02 0.04 0.02
0.02 0.04 0.04
0.02 0.02 0.04
0.02 0.02 0.02
0.02 0.02 0.04
1.02 0.02 0.04
1.02 0.02 0.02
0.02 0.04 0.02
1.02 0.04 0.02
1.02 0.04 0.04
0.02 0.04 0.04
0.02 0.02 0.04
0.02 1.02 0.04
0.04 1.02 0.04
0.04 0.02 0.04
0.02 0.02 0.02
0.04 0.02 0.02
0.04 1.02 0.02
0.02 1.02 0.02
0.04 0.02 0.02
0.04 0.02 0.04
0.04 1.02 0.04
0.04 1.02 0.02
0.02 0.02 0.02
0.02 1.02 0.02
0.02 1.02 0.04
0.02 0.02 0.04
0.02 0.02 0.02
0.02 0.02 0.04
0.04 0.02 0.04
0.04 0.02 0.02
0.02 1.02 0.02
0.04 1.02 0.02
0.04 1.02 0.04
0.02 1.02 0.04
0.02 0.02 1.02
0.02 0.04 1.02
0.04 0.04 1.02
0.04 0.02 1.02
0.02 0.02 0.02
0.04 0.02 0.02
0.04 0.04 0.02
0.02 0.04 0.02
0.04 0.02 0.02
0.04 0.02 1.02
0.04 0.04 1.02
0.04 0.04 0.02
0.02 0.02 0.02
0.02 0.04 0.02
0.02 0.04 1.02
0.02 0.02 1.02
0.02 0.02 0.02
0.02 0.02 1.02
0.04 0.02 1.02
0.04 0.02 0.02
0.02 0.04 0.02
0.04 0.04 0.02
0.04 0.04 1.02
0.02 0.04 1.02
3 0 1 2
3 2 3 0
3 4 5 6
3 6 7 4
3 8 9 10
3 10 11 8
3 12 13 14
3 14 15 12
3 16 17 18
3 18 19 16
3 20 21 22
3 22 23 20
3 24 25 26
3 26 27 24
3 28 29 30
3 30 31 28
3 32 33 34
3 34 35 32
3 36 37 38
3 38 39 36
3 40 41 42
3 42 43 40
3 44 45 46
3 46 47 44
3 48 49 50
3 50 51 48
3 52 53 54
3 54 55 52
3 56 57 58
3 58 59 56
3 60 61 62
3 62 63 60
3 64 65 66
3 66 67 64
3 68 69 70
3 70 71 68
